<svg xmlns="http://www.w3.org/2000/svg" width="152" height="152"><path fill="#d00" d="M147,0H93h-5v5v35v5h5h5v24.8L55.2,2.3L53.7,0H51H5H0v5v35v5h5h5v62H5H0v5v35v5h5h54h5v-5v-35v-5h-5h-5V82.2l42.8,67.5l1.5,2.3h2.7h46h5v-5v-35v-5h-5h-5V45h5h5v-5V5V0H147z M150,5v35v3h-3h-7v66h7h3v3v35v3h-3h-46h-1.6l-0.9-1.4L52,75.3V109h7h3v3v35v3h-3H5H2v-3v-35v-3h3h7V43H5H2v-3V5V2h3h46h1.7l0.9,1.4L100,76.7V43h-7h-3v-3V5V2h3h54h3V5z M103,87L103,87L51,5H5v35c0,0,7.8,0,10,0c0,3.3,0,68.7,0,72l0,0c-2.2,0-10,0-10,0v35h54v-35c0,0-7.8,0-10,0l0,0c0-2.6,0-47,0-47l52,82h46v-35c0,0-7.8,0-10,0l0,0c0-3.3,0-68.7,0-72c2.2,0,10,0,10,0V5H93v35c0,0,7.8,0,10,0C103,42.6,103,87,103,87z"/></svg>