<svg width="82" height="122" fill="none" xmlns="http://www.w3.org/2000/svg"><path d="M82 76.275V59.738l-12.16-12.09h-8.828V43.86l-12.16-12.09H19.045V17.8h22.922v10.827h19.045V12.09L48.852 0H12.16L0 12.09V37.48l12.16 12.09h19.045L20.979 59.738v3.795h-1.934V52.706H0v16.537l12.16 12.09h8.828v28.577L33.148 122H69.84L82 109.91V93.364H62.955v10.827H40.033V81.333h8.82l12.16-12.09v-3.795h1.934v10.827H82zM20.988 79.41H12.96L1.934 68.447V54.63h15.177v10.827h3.868V79.41h.009zm17.11-15.885v42.59H64.89V95.287h15.177v13.818l-11.027 10.963H33.95l-11.027-10.963v-48.58L33.95 49.564h8.018v13.953H38.1v.009zm20.98 4.922L48.05 79.41h-8.018V65.448H43.9V47.639h-30.94L1.934 36.676v-23.79L12.961 1.923h35.09l11.027 10.963v13.818H43.9V15.877h-26.79v17.809h30.94l11.027 10.963v23.798zm1.934-4.922V49.563h8.019l11.026 10.963v13.818H64.881V63.516h-3.869v.009z" fill="#FFC82E"/><path d="M64.88 74.352h15.185V60.534L69.04 49.563h-8.027v13.962h3.868v10.827zM17.11 33.686v-17.81h26.791v10.828h15.177V12.886L48.05 1.923h-35.09L1.934 12.886v23.79L12.961 47.64H43.9v17.809h-3.868V79.41h8.018l11.027-10.963V44.65L48.05 33.686h-30.94zM17.11 54.62H1.934V68.44L12.961 79.41h8.027V65.448H17.11V54.62z" fill="#9D2236"/><path d="M41.967 49.571l-8.018-.008-11.035 10.962v48.58l11.026 10.963h35.09l11.036-10.954V95.287H64.88v10.828H38.098v-42.59h3.87V49.57z" fill="#9D2236"/></svg>